<svg width="128" height="128" viewBox="0 0 128 128" fill="none" xmlns="http://www.w3.org/2000/svg">
<g id="Image">
<path id="Vector" d="M64.2798 24.4507V40.5316M52.701 93.5905L63.9442 91.1197M52.701 93.5905L29.5854 93.8415L31.2216 73.6565L32.1445 59.2088L19.3491 50.4983M52.701 93.5905L44.2268 105.819M63.9442 91.1197H64.6155M63.9442 91.1197L47.8767 81.2364L33.1934 60.3395L26.6069 41.4527L64.364 31.3183L42.6746 12.7247L26.5228 29.3085M19.3491 50.4983L12.3012 68.2962L47.5411 80.5663L53.3725 92.9202L64.1122 115.953H64.4479L75.1877 92.9202L81.6903 82.2414L116.301 68.2962L109.211 50.4986M19.3491 50.4983L8.18984 31.7789L26.5228 29.3085M19.3491 50.4983L25.9356 41.4527L26.5228 29.3085M19.3491 50.4983L7.18293 55.2723M64.6155 91.1197L75.8587 93.5905M64.6155 91.1197L81.6903 81.5714L95.3667 60.3395L101.954 41.4527L64.1962 31.3183L85.8855 12.7247L102.079 29.3085M26.5228 29.3085L45.9886 36.2602L64.112 40.6573H64.4477L82.571 36.2602L102.079 29.3085M26.5228 29.3085L20.6495 15.0701M75.8587 93.5905L98.0933 94.6793L97.3382 73.6567L96.4152 59.209L109.211 50.4986M75.8587 93.5905L83.0745 106.656M102.079 29.3085L102.624 41.453L109.211 50.4986M102.079 29.3085L120.37 31.7789L109.211 50.4986M102.079 29.3085L107.91 15.0701M109.211 50.4986L121.377 55.2726M97.4222 75.9182L108.791 82.7442M30.7602 75.2479L20.314 83.4559M64.2804 117.084C64.2804 117.084 123.014 93.0457 123.014 41.4527C123.014 28.2612 112.525 11.3008 95.0734 11.3008C72.9226 11.3008 64.2804 24.3247 64.2804 24.3247C64.2804 24.3247 55.89 11.3008 33.6134 11.3008C16.2031 11.3008 5.6731 28.2612 5.6731 41.4527C5.6731 93.0457 64.4063 117.084 64.4063 117.084H64.2804Z" stroke="#151542" stroke-linejoin="round"/>
</g>
</svg>
