<svg width="128" height="128" viewBox="0 0 128 128" fill="none" xmlns="http://www.w3.org/2000/svg">
<g id="Image">
<path id="Vector" d="M79.2854 17.1828L72.5642 22.2161M72.5642 22.2161L73.6676 37.9301L88.0162 49.1568L81.1355 63.6594L87.4876 79.1217M72.5642 22.2161L63.6614 26.0678M72.5642 22.2161L63.997 6.49788H63.3258L54.767 22.2119L37.6914 31.3485L39.3025 49.161M72.5642 22.2161L89.6315 31.3485L88.0245 49.1568L98.8237 63.6594L87.4876 79.1217M87.4876 79.1217L74.2131 89.1327M87.4876 79.1217L89.9628 97.1006L72.3628 106.109L64.0012 122.16H63.3299L54.9642 106.109M63.6614 26.0678L73.676 37.9258L81.144 63.6594L74.2131 89.1327M63.6614 26.0678L54.7586 22.2246L53.6511 37.9386L39.3025 49.161M63.6614 26.0678L53.6468 37.9258L46.2209 63.6594L53.1097 89.1327M39.3025 49.161L28.5033 63.6636L39.8731 79.1217L37.3642 97.1006L54.9642 106.109M39.3025 49.161L46.225 63.6679L39.8731 79.1302L53.1097 89.1327M72.3586 106.109L74.2131 89.1327M72.3586 106.109L63.6614 102.803M72.3586 106.109L79.7427 111.142M74.2131 89.1327L63.6614 102.803M63.6614 102.803L53.1097 89.1327M63.6614 102.803L54.9642 106.109M54.9642 106.109L53.1097 89.1327M54.9642 106.109L47.5802 111.142M48.0794 17.1828L54.7586 22.2161M63.997 122.996C74.7673 117.43 83.8107 108.94 90.1246 98.4661C96.4385 87.9933 99.7766 75.9472 99.7676 63.6636C99.7676 23.5085 63.997 5.65759 63.997 5.65759H63.3258C63.3258 5.65759 27.5593 23.5085 27.5593 63.6594C27.5512 75.9435 30.8895 87.9898 37.2042 98.4627C43.5189 108.936 52.5632 117.426 63.3342 122.992L63.997 122.996Z" stroke="#151542"/>
</g>
</svg>
