<svg width="128" height="128" viewBox="0 0 128 128" fill="none" xmlns="http://www.w3.org/2000/svg">
<g id="Image">
<path id="Vector" d="M98.4982 84.0287L89.5994 76.1031M75.8765 104.897L79.1009 88.721L89.6035 76.1073M75.8765 104.897L64.132 99.7052L79.1051 88.7253L82.7421 64.5047L89.6035 76.1073M75.8765 104.897L82.077 116.299M75.8765 104.897L64.132 123M75.8765 104.897L92.7059 102.551L89.6035 76.1073M89.6035 76.1073L100.073 65.4602V64.8331L89.6077 52.548L94.0782 30.5925L75.8765 23.8057M75.8765 23.8057L64.132 5.65955M75.8765 23.8057L76.992 42.5748L89.6035 52.5565L82.7421 64.8331L76.9961 42.5748L64.132 31.9788L75.8765 23.8057ZM75.8765 23.8057L83.6513 14.2933M98.8686 48.5297L89.6077 52.5523M29.1847 82.1007L38.614 76.1073M38.614 76.1073L49.9038 88.431M38.614 76.1073L45.4755 64.5005L49.9038 88.431M38.614 76.1073L34.9728 101.629L52.3454 104.897M38.614 76.1073L28.1492 65.4644V64.8374L38.614 52.5523L34.152 30.055L52.3328 23.8057L64.0899 5.65955M49.9038 88.431L52.3454 104.897M49.9038 88.431L64.0899 99.7009L52.3454 104.897M52.3454 104.897L45.3576 115.834M52.3454 104.897L64.0899 123M29.3068 47.3097L38.6098 52.5565M38.6098 52.5565L51.2256 42.5748M38.6098 52.5565L45.4755 64.8332L51.2256 42.5748M51.2256 42.5748L52.3454 23.8057M51.2256 42.5748L64.0899 31.9788L52.3454 23.8057M52.3454 23.8057L44.5241 14.1227M27.9009 65.1659C27.9009 28.4554 44.0737 5.65955 64.0057 5.65955C83.9376 5.65955 100.11 28.4127 100.11 65.1232C100.11 101.838 83.9376 123 64.0057 123C44.0737 123 27.9009 102.047 27.9009 65.1659Z" stroke="#151542"/>
</g>
</svg>
