<svg width="128" height="128" viewBox="0 0 128 128" fill="none" xmlns="http://www.w3.org/2000/svg">
<g id="Image">
<path id="Vector" d="M36.543 23.0216L36.7937 43.0172M36.543 23.0216L64.6649 35.9058M36.543 23.0216L64.2053 5.53582L93.6644 25.5315M36.543 23.0216L32.0719 10.5975M36.543 23.0216L17.9065 20.2606L22.294 39.3779M36.7937 43.0172L31.2362 62.9292M36.7937 43.0172L64.6649 35.9058M36.7937 43.0172L22.294 39.3779M64.6649 35.9058L91.3662 43.8121M64.6649 35.9058L93.6644 25.5315M93.6644 25.5315L110.003 19.675L107.496 42.4316M93.6644 25.5315L91.3662 43.8121M93.6644 25.5315L99.4726 11.5596M22.294 39.3779L31.2362 62.9292M22.294 39.3779L5.57961 62.9292L20.2047 85.0583M22.294 39.3779L11.3043 33.6051M31.2362 62.9292L36.3341 84.2217M31.2362 62.9292L20.2047 85.0583M36.3341 84.2217L20.2047 85.0583M36.3341 84.2217L33.7851 102.252M36.3341 84.2217L63.0352 92.0861M20.2047 85.0583L10.0089 90.5801M20.2047 85.0583L17.9065 107.815L33.7851 102.252M33.7851 102.252L63.7457 122.665L92.5361 104.468M33.7851 102.252L63.0352 92.0861M33.7851 102.252L28.6036 116.182M63.0352 92.0861L92.5361 104.468M63.0352 92.0861L90.6976 84.5145M92.5361 104.468L97.6758 116.976M92.5361 104.468L90.6976 84.5145M92.5361 104.468L110.504 107.815M90.6976 84.5145L105.866 88.112M90.6976 84.5145L96.2133 62.9292M111.047 107.103L105.866 88.112M105.866 88.112L117.816 94.7634M105.866 88.112L122.581 62.9292L107.496 42.4316M105.866 88.112L96.2133 62.9292M107.496 42.4316L96.2133 62.9292M107.496 42.4316L91.3662 43.8121M107.496 42.4316L118.695 36.7425M96.2133 62.9292L91.3662 43.8121M64.1635 5.32666C57.7285 5.32666 30.1079 5.32666 17.8647 20.0515C5.62139 34.7763 5.32889 62.7619 5.32889 62.7619C5.32889 62.7619 4.78568 92.0443 17.8647 107.648C30.9437 123.251 57.0599 122.456 63.7457 122.456C70.4313 122.456 98.0519 122.456 110.504 107.606C122.956 92.7554 122.664 81.0007 122.664 62.9292C122.664 44.8578 121.87 33.6469 110.128 19.675C98.3862 5.70314 74.5682 5.32666 64.1635 5.32666Z" stroke="#151542"/>
</g>
</svg>
