<svg width="128" height="128" viewBox="0 0 128 128" fill="none" xmlns="http://www.w3.org/2000/svg">
<g id="Image">
<path id="Vector" d="M110.345 97.5169L91.4488 91.3615L97.5231 110.343M110.345 97.5169V31.1855M110.345 97.5169L97.5231 110.343M97.5231 110.343L104.352 123M97.5231 110.343L64.3317 95.7551L31.1873 110.343M97.5231 110.343H31.1873M110.345 31.1855L96.0983 64.3298L110.345 97.5254L123.002 104.35M110.345 31.1855L123.002 24.3475M110.345 31.1855L97.5188 18.3457H31.1873M110.345 31.1855L91.4488 37.3408L97.5231 18.3585M104.352 123L123.002 104.35M104.352 123H24.3494M31.1873 110.343L24.3494 123M31.1873 110.343L18.3476 97.5169V31.1855L31.1873 18.3457M123.002 104.35V24.3475M123.002 24.3475L104.352 5.65955M31.1873 18.3457L64.3317 32.9429L97.5274 18.3542L104.352 5.65955M31.1873 18.3457L24.3451 5.65955M104.352 5.65955L24.3494 5.66381L5.66571 24.3475L5.66144 104.35M24.3494 123L5.66144 104.35M5.66144 104.35L18.3561 97.5254L32.5608 64.3298L18.3561 31.1855M18.3561 97.5169L37.2531 91.3615L31.183 110.343M18.3561 31.1855L5.66144 24.3433M18.3561 31.1855L37.2531 37.3408L31.183 18.3585M64.3317 33.233L91.0691 37.6778L95.1727 64.3298L91.0691 91.0244L64.3317 95.4693L37.5944 91.0244L33.5335 64.3298L37.5944 37.6778L64.3317 33.233Z" stroke="#151542"/>
</g>
</svg>
